<svg width="129" height="128" viewBox="0 0 129 128" fill="none" xmlns="http://www.w3.org/2000/svg">
<g clip-path="url(#clip0_357_7587)">
<path fill-rule="evenodd" clip-rule="evenodd" d="M55.8358 8.96614C55.8358 4.24114 59.6658 0.411133 64.3908 0.411133C69.1168 0.411133 72.9458 4.24114 72.9458 8.96614C72.9458 13.6911 69.1168 17.5211 64.3908 17.5211C59.6658 17.5211 55.8358 13.6911 55.8358 8.96614ZM46.7698 13.1411C42.0458 13.1411 38.2148 16.9711 38.2148 21.6961C38.2148 26.4211 42.0448 30.2511 46.7698 30.2511C51.4948 30.2511 55.3248 26.4211 55.3248 21.6961C55.3248 16.9721 51.4948 13.1411 46.7698 13.1411ZM82.0118 13.1411C77.2868 13.1411 73.4568 16.9711 73.4568 21.6961C73.4568 26.4211 77.2868 30.2511 82.0118 30.2511C86.7368 30.2511 90.5678 26.4211 90.5678 21.6961C90.5678 16.9721 86.7368 13.1411 82.0118 13.1411ZM75.3968 33.7961V50.9061C80.1208 50.9061 83.9518 47.0761 83.9518 42.3511C83.9518 37.6261 80.1218 33.7961 75.3968 33.7961ZM53.3858 33.7961C48.6608 33.7961 44.8308 37.6261 44.8308 42.3511C44.8308 47.0751 48.6608 50.9061 53.3858 50.9061V33.7961Z" fill="#377F52"/>
<path fill-rule="evenodd" clip-rule="evenodd" d="M53.3862 33.7959V50.9059C53.3862 55.6299 57.2162 59.4619 61.9412 59.4619V33.7959C60.3812 33.7959 58.9232 34.2199 57.6632 34.9489C56.4032 34.2199 54.9462 33.7959 53.3862 33.7959ZM71.1202 34.9489C69.8602 34.2199 68.4022 33.7959 66.8402 33.7959V59.4609C71.5672 59.4609 75.3972 55.6289 75.3972 50.9049V33.7949C73.8372 33.7949 72.3772 34.2189 71.1192 34.9479" fill="#765841"/>
<g clip-path="url(#clip1_357_7587)">
<path fill-rule="evenodd" clip-rule="evenodd" d="M0.206 86.815V77.285L0 75.291H2.268L2.497 76.734C3.253 75.589 4.375 74.948 5.818 74.948C7.263 74.948 8.361 75.498 9.002 76.78C9.69 75.59 10.905 74.948 12.347 74.948C14.662 74.948 15.99 76.299 15.99 79.003V86.815H13.264V79.553C13.264 78.2 13.035 77.055 11.524 77.055C10.262 77.055 9.461 78.109 9.461 79.301V86.815H6.735V79.553C6.735 78.316 6.575 77.055 4.994 77.055C3.711 77.055 2.932 78.155 2.932 79.392V86.815H0.206ZM25.542 77.239C25.199 77.079 24.534 76.941 23.824 76.941C21.648 76.941 20.915 78.98 20.915 81.455C20.915 83.355 21.373 85.165 23.297 85.165C24.717 85.165 25.542 84.158 25.542 83.171V77.239ZM28.245 84.616L28.451 86.815H26.092L25.932 85.601L25.84 85.578C25.13 86.608 23.962 87.113 22.702 87.113C19.472 87.113 18.211 84.822 18.211 81.546C18.211 77.514 20.228 74.948 24.168 74.948C24.924 74.948 26.596 75.131 28.245 75.75V84.616ZM37.844 77.239C37.5 77.079 36.836 76.941 36.126 76.941C33.95 76.941 33.216 78.98 33.216 81.455C33.216 83.355 33.675 85.165 35.599 85.165C37.019 85.165 37.844 84.158 37.844 83.171V77.239ZM40.547 84.616L40.753 86.815H38.393L38.233 85.601L38.142 85.578C37.432 86.608 36.263 87.113 35.003 87.113C31.773 87.113 30.513 84.822 30.513 81.546C30.513 77.514 32.529 74.948 36.469 74.948C37.225 74.948 38.897 75.131 40.547 75.75V84.616ZM46.136 70.893V75.291H49.229V77.423H46.136V83.241C46.136 84.638 46.686 85.051 47.626 85.051C48.244 85.051 48.816 84.799 49.183 84.57L49.87 86.334C49.183 86.814 48.038 87.135 46.961 87.135C43.388 87.135 43.411 84.936 43.411 83.333V70.893H46.136ZM51.245 84.042C52.001 84.524 53.352 85.142 54.521 85.142C55.483 85.142 56.261 84.707 56.261 83.676C56.261 82.646 55.391 82.325 54.314 82.004C52.642 81.523 50.764 80.973 50.764 78.591C50.764 76.207 52.734 74.949 54.956 74.949C56.674 74.949 58.163 75.636 59.102 76.575L57.796 78.178C56.926 77.423 55.964 76.94 55.002 76.94C54.177 76.94 53.398 77.354 53.398 78.27C53.398 79.323 54.36 79.622 55.437 79.942C57.109 80.469 58.964 81.133 58.964 83.492C58.964 85.875 57.201 87.158 54.635 87.158C52.665 87.158 51.039 86.448 50.442 85.99L51.245 84.042ZM68.587 83.974L69.617 85.806C68.723 86.539 67.326 87.136 65.631 87.136C62.263 87.136 60.316 85.004 60.316 81.11C60.316 76.506 63.18 74.948 65.608 74.948C67.098 74.948 68.748 75.544 69.823 77.125L68.106 78.545C67.509 77.812 66.684 77.125 65.654 77.125C64.119 77.125 63.042 78.385 63.042 80.995C63.042 83.378 63.914 84.959 65.952 84.959C66.846 84.959 67.648 84.661 68.587 83.974ZM71.266 86.815V70.893H73.992V76.253C74.772 75.361 75.916 74.948 77.085 74.948C79.49 74.948 80.774 76.276 80.774 78.979V86.815H78.047V79.46C78.047 78.132 77.772 77.055 76.283 77.055C74.977 77.055 73.993 78.155 73.993 79.323V86.815H71.266ZM90.303 77.239C89.959 77.079 89.295 76.941 88.585 76.941C86.409 76.941 85.675 78.98 85.675 81.455C85.675 83.355 86.134 85.165 88.058 85.165C89.478 85.165 90.303 84.158 90.303 83.171V77.239ZM93.006 84.616L93.212 86.815H90.852L90.692 85.601L90.601 85.578C89.891 86.608 88.722 87.113 87.464 87.113C84.233 87.113 82.973 84.822 82.973 81.546C82.973 77.514 84.989 74.948 88.929 74.948C89.685 74.948 91.357 75.131 93.006 75.75V84.616ZM99.924 77.124C99.512 77.124 99.054 77.17 98.573 77.284V84.34C99.168 84.73 99.924 84.913 100.52 84.913C102.467 84.913 103.064 82.988 103.064 81.156C103.064 78.476 102.032 77.124 99.924 77.124ZM98.573 91.624H95.847V75.704C97.565 75.177 99.26 74.948 100.428 74.948C104.093 74.948 105.811 76.987 105.811 80.95C105.811 84.983 103.956 87.159 100.955 87.159C100.062 87.159 99.168 86.861 98.573 86.493V91.624ZM112.157 77.124C111.745 77.124 111.287 77.17 110.806 77.284V84.34C111.401 84.73 112.157 84.913 112.753 84.913C114.7 84.913 115.296 82.988 115.296 81.156C115.296 78.476 114.264 77.124 112.157 77.124ZM110.806 91.624H108.08V75.704C109.798 75.177 111.493 74.948 112.662 74.948C116.327 74.948 118.045 76.987 118.045 80.95C118.045 84.983 116.19 87.159 113.188 87.159C112.294 87.159 111.401 86.861 110.806 86.493V91.624ZM120.381 86.815H123.108V75.292H120.381V86.815ZM121.733 70.459C122.672 70.459 123.313 71.146 123.313 71.993C123.313 72.863 122.65 73.505 121.733 73.505C120.771 73.505 120.152 72.864 120.152 71.993C120.152 71.146 120.796 70.459 121.733 70.459ZM127.39 70.458C128.308 70.458 128.973 71.146 128.973 71.993C128.973 72.863 128.308 73.505 127.368 73.505C126.428 73.505 125.809 72.863 125.809 71.993C125.809 71.146 126.428 70.458 127.39 70.458ZM125.97 75.292H128.696V87.594C128.696 89.793 128.284 91.946 125.031 91.946C124.092 91.946 122.9 91.648 122.099 91.144L122.924 89.243C123.474 89.541 124.024 89.723 124.619 89.723C125.489 89.723 125.971 89.22 125.971 87.708L125.97 75.292ZM8.82 100.955C9.232 102.398 9.576 104.254 9.576 105.995C9.576 110.209 7.72 112.799 4.078 112.799C1.375 112.799 0.069 111.538 0.069 108.72V100.955H2.819V108.171C2.819 109.569 2.909 110.667 4.376 110.667C6.3 110.667 6.896 108.377 6.896 106.177C6.896 104.254 6.483 102.421 6.116 100.955H8.82ZM18.716 102.901C18.372 102.741 17.708 102.604 16.998 102.604C14.822 102.604 14.088 104.643 14.088 107.118C14.088 109.019 14.547 110.828 16.471 110.828C17.891 110.828 18.716 109.821 18.716 108.835V102.901ZM21.419 110.279L21.625 112.479H19.265L19.105 111.264L19.014 111.241C18.304 112.271 17.135 112.776 15.876 112.776C12.646 112.776 11.386 110.486 11.386 107.21C11.386 103.177 13.402 100.611 17.342 100.611C18.097 100.611 19.771 100.795 21.419 101.413V110.279ZM24.305 112.478V102.948L24.122 100.955H26.412L26.642 102.398C27.444 101.253 28.658 100.611 30.169 100.611C32.46 100.611 33.813 101.894 33.813 104.597V112.477L31.087 112.478V105.194C31.087 103.795 30.835 102.719 29.367 102.719C27.993 102.719 27.031 103.841 27.031 105.032V112.478H24.305ZM56.193 100.955C56.628 102.398 56.994 104.185 56.994 105.949C56.994 110.119 55.414 112.799 52.024 112.799C50.329 112.799 49.39 112.042 48.931 110.919C47.946 112.317 46.709 112.799 45.242 112.799C42.768 112.799 41.394 111.515 41.394 108.812V100.955H44.121V108.102C44.121 109.499 44.236 110.69 45.679 110.69C46.893 110.69 47.762 109.66 47.762 108.491V100.955H50.489V108.079C50.489 109.522 50.558 110.69 52.001 110.69C53.994 110.69 54.314 108.01 54.314 106.04C54.314 104.23 53.902 102.421 53.513 100.955H56.193ZM64.234 102.559C62.4 102.559 61.531 104.345 61.462 106.04C62.699 106.063 65.609 105.674 65.609 103.91C65.609 103.063 65.059 102.559 64.234 102.559ZM68.037 103.796C68.037 107.323 63.661 107.781 61.553 107.804C61.646 109.294 62.493 110.736 64.44 110.736C65.792 110.736 66.776 110.119 67.325 109.728L68.175 111.538C67.808 111.858 66.295 112.822 64.143 112.822C60.363 112.822 58.804 110.394 58.804 106.957C58.804 103.589 60.751 100.612 64.394 100.612C66.638 100.612 68.037 101.757 68.037 103.796ZM72.71 96.58V108.721C72.71 110.141 73.008 110.668 73.947 110.668C74.405 110.668 74.909 110.508 75.391 110.302L75.985 112.134C75.367 112.524 74.245 112.822 73.26 112.822C70.167 112.822 69.984 111.012 69.984 109.294V96.58H72.71ZM77.2 109.706C77.956 110.186 79.308 110.806 80.476 110.806C81.438 110.806 82.216 110.37 82.216 109.339C82.216 108.309 81.346 107.988 80.27 107.667C78.598 107.187 76.72 106.637 76.72 104.254C76.72 101.871 78.688 100.612 80.911 100.612C82.629 100.612 84.118 101.299 85.057 102.238L83.752 103.842C82.882 103.086 81.919 102.604 80.957 102.604C80.132 102.604 79.352 103.017 79.352 103.934C79.352 104.986 80.316 105.284 81.392 105.606C83.064 106.132 84.919 106.796 84.919 109.156C84.919 111.538 83.155 112.821 80.591 112.821C78.621 112.821 76.993 112.111 76.397 111.653L77.2 109.706ZM89.707 100.955H92.8V103.086H89.707V108.904C89.707 110.302 90.257 110.714 91.197 110.714C91.815 110.714 92.389 110.462 92.754 110.233L93.442 111.997C92.754 112.477 91.609 112.799 90.533 112.799C86.959 112.799 86.981 110.599 86.981 108.996V96.556H89.707V100.955ZM101.39 102.901C101.047 102.741 100.382 102.604 99.672 102.604C97.496 102.604 96.763 104.643 96.763 107.118C96.763 109.019 97.221 110.828 99.147 110.828C100.566 110.828 101.39 109.821 101.39 108.835V102.901ZM104.093 110.279L104.299 112.479H101.939L101.779 111.264L101.688 111.241C100.978 112.271 99.81 112.776 98.551 112.776C95.32 112.776 94.06 110.486 94.06 107.21C94.06 103.177 96.076 100.611 100.016 100.611C100.772 100.611 102.444 100.795 104.093 101.413V110.279ZM106.98 112.478V102.948L106.797 100.955H109.087L109.315 102.398C110.118 101.253 111.331 100.611 112.845 100.611C115.135 100.611 116.488 101.894 116.488 104.597V112.477L113.761 112.478V105.194C113.761 103.795 113.509 102.719 112.043 102.719C110.668 102.719 109.706 103.841 109.706 105.032V112.478H106.98ZM126.016 102.971C125.603 102.788 125.009 102.604 124.298 102.604C122.123 102.604 121.388 104.666 121.388 106.912C121.388 108.996 121.892 110.805 123.748 110.805C125.145 110.805 126.016 109.798 126.016 108.904V102.971ZM126.016 100.886V96.556H128.719V110.232L128.925 112.478H126.59L126.405 111.24L126.313 111.217C125.603 112.271 124.458 112.822 123.198 112.822C119.625 112.822 118.686 110.027 118.686 107.164C118.686 103.246 120.701 100.611 124.23 100.611C124.963 100.611 125.489 100.726 126.016 100.886Z" fill="#3C3C3B"/>
</g>
<rect x="44.5" y="125" width="40" height="3" fill="#765841"/>
</g>
<defs>
<clipPath id="clip0_357_7587">
<rect width="129" height="128" fill="white"/>
</clipPath>
<clipPath id="clip1_357_7587">
<rect width="129" height="43" fill="white" transform="translate(0 70)"/>
</clipPath>
</defs>
</svg>
